<?xml version="1.0" encoding="utf-8"?>
<!-- Generator: Adobe Illustrator 16.0.3, SVG Export Plug-In . SVG Version: 6.00 Build 0)  -->
<!DOCTYPE svg PUBLIC "-//W3C//DTD SVG 1.1//EN" "http://www.w3.org/Graphics/SVG/1.1/DTD/svg11.dtd">
<svg version="1.1" id="Layer_1" xmlns="http://www.w3.org/2000/svg" xmlns:xlink="http://www.w3.org/1999/xlink" x="0px" y="0px"
	 width="500px" height="133.5px" viewBox="0 0 500 133.5" enable-background="new 0 0 500 133.5" xml:space="preserve">
<g>
	<path fill="#BCBEC0" d="M88.098,26.712c11.332,22.468,2.454,105.113,2.454,105.113S18.243,90.127,6.911,67.659
		C-4.421,45.191,4.567,17.812,26.986,6.504C49.405-4.803,76.766,4.244,88.098,26.712z"/>
</g>
<g>
	<path fill="#FFFFFF" d="M89.47,25.95c11.233,22.272,2.345,104.243,2.345,104.243s-71.767-41.291-83-63.563
		S6.53,17.195,28.803,5.962C51.075-5.271,78.236,3.677,89.47,25.95z"/>
</g>
<g>
	<path fill="#FFFFFF" d="M87.56,27.159c1.476,2.927,2.586,6.939,3.404,11.68c5.095,29.537-1.176,87.37-1.176,87.37
		S21.596,86.975,10.922,65.813C0.249,44.649,8.752,18.841,29.915,8.167C51.078-2.507,76.886,5.997,87.56,27.159z"/>
</g>
<g>
	<path fill="#1C75BC" stroke="#F1F2F2" stroke-width="2" stroke-miterlimit="10" d="M145.622,76.04
		c-1.96,2.122-4.364,3.719-7.212,4.791c-2.849,1.072-5.967,1.608-9.357,1.608c-5.789,0-10.285-1.793-13.49-5.379
		c-3.206-3.586-4.854-8.803-4.946-15.652v-9.063c0-6.941,1.516-12.285,4.548-16.033c3.032-3.747,7.455-5.621,13.266-5.621
		c5.465,0,9.587,1.349,12.366,4.047c2.778,2.698,4.387,6.93,4.825,12.695h-9.893c-0.276-3.205-0.946-5.39-2.006-6.555
		c-1.061-1.164-2.722-1.747-4.981-1.747c-2.745,0-4.739,1.003-5.984,3.009s-1.891,5.201-1.937,9.582v9.132
		c0,4.589,0.686,7.927,2.058,10.014c1.372,2.087,3.626,3.131,6.762,3.131c2.006,0,3.632-0.404,4.877-1.211l0.899-0.623v-9.235
		h-7.125v-7.679h17.33V76.04z"/>
	<path fill="#1C75BC" stroke="#F1F2F2" stroke-width="2" stroke-miterlimit="10" d="M162.986,64.037v17.711h-10.17V31.384h17.157
		c4.981,0,8.953,1.545,11.916,4.635c2.963,3.09,4.445,7.103,4.445,12.038c0,4.935-1.464,8.833-4.393,11.691
		c-2.929,2.859-6.987,4.289-12.176,4.289H162.986z M162.986,55.563h6.987c1.937,0,3.436-0.634,4.497-1.902
		c1.061-1.268,1.591-3.113,1.591-5.534c0-2.513-0.542-4.514-1.626-6.001c-1.084-1.488-2.537-2.243-4.358-2.266h-7.091V55.563z"/>
	<path fill="#1C75BC" stroke="#F1F2F2" stroke-width="2" stroke-miterlimit="10" d="M214.388,68.534
		c0-2.052-0.525-3.603-1.574-4.652s-2.958-2.139-5.725-3.269c-5.05-1.914-8.682-4.157-10.896-6.728s-3.32-5.609-3.32-9.115
		c0-4.243,1.504-7.65,4.514-10.222c3.009-2.571,6.832-3.856,11.467-3.856c3.09,0,5.846,0.652,8.267,1.954
		c2.421,1.303,4.283,3.143,5.586,5.517c1.302,2.375,1.954,5.074,1.954,8.094h-10.134c0-2.352-0.501-4.145-1.505-5.379
		c-1.003-1.233-2.45-1.851-4.341-1.851c-1.776,0-3.16,0.525-4.151,1.574c-0.992,1.049-1.487,2.462-1.487,4.237
		c0,1.383,0.553,2.635,1.66,3.753c1.107,1.119,3.067,2.277,5.88,3.476c4.912,1.776,8.48,3.956,10.706,6.538
		c2.226,2.583,3.339,5.869,3.339,9.858c0,4.382-1.396,7.807-4.186,10.273c-2.791,2.468-6.584,3.701-11.38,3.701
		c-3.251,0-6.215-0.67-8.89-2.006c-2.675-1.338-4.768-3.252-6.278-5.742s-2.266-5.432-2.266-8.82h10.204
		c0,2.905,0.565,5.016,1.695,6.33c1.129,1.314,2.975,1.971,5.534,1.971C212.611,74.172,214.388,72.293,214.388,68.534z"/>
	<path fill="#27AAE1" stroke="#F1F2F2" stroke-width="2" stroke-miterlimit="10" d="M266.584,39.859h-12.072l-7.264,41.889h-9.962
		l7.265-41.889h-11.899l1.487-8.475h33.934L266.584,39.859z"/>
	<path fill="#27AAE1" stroke="#F1F2F2" stroke-width="2" stroke-miterlimit="10" d="M283.499,63.346h-5.05l-3.183,18.402h-9.928
		l8.717-50.364l15.22,0.034c4.497,0.139,7.944,1.522,10.343,4.151s3.412,6.215,3.044,10.758c-0.577,6.896-3.713,11.691-9.408,14.39
		l5.05,20.478v0.554h-10.654L283.499,63.346z M279.901,54.871l5.224,0.069c2.397-0.046,4.289-0.997,5.673-2.854
		c1.384-1.856,2.063-4.318,2.04-7.385c-0.092-3.021-1.418-4.623-3.978-4.808l-6.33-0.034L279.901,54.871z"/>
	<path fill="#27AAE1" stroke="#F1F2F2" stroke-width="2" stroke-miterlimit="10" d="M328.916,71.439H315.53l-4.394,10.309h-10.792
		l24.006-50.364h9.097l6.607,50.364h-10.273L328.916,71.439z M319.162,62.965h9.063l-1.418-17.849L319.162,62.965z"/>
	<path fill="#27AAE1" stroke="#F1F2F2" stroke-width="2" stroke-miterlimit="10" d="M380.075,64.937
		c-0.622,5.466-2.635,9.784-6.036,12.954c-3.401,3.171-7.708,4.688-12.919,4.549c-4.475-0.092-7.934-1.568-10.377-4.428
		c-2.445-2.859-3.736-6.826-3.875-11.898c-0.046-1.73,0.047-3.471,0.277-5.224l1.279-8.336c1.084-7.125,3.431-12.579,7.039-16.361
		c3.609-3.781,8.089-5.615,13.438-5.5c4.682,0.069,8.278,1.62,10.793,4.652c2.513,3.033,3.77,7.432,3.77,13.196l-9.996-0.035
		l0.069-3.424c-0.069-3.875-1.88-5.869-5.431-5.984c-2.745-0.092-4.912,0.905-6.503,2.992c-1.592,2.087-2.664,5.471-3.217,10.152
		l-1.246,8.682c-0.323,2.768-0.496,4.578-0.519,5.432c-0.23,4.98,1.522,7.552,5.258,7.713c2.329,0.115,4.186-0.502,5.569-1.851
		c1.383-1.349,2.352-3.753,2.905-7.212L380.075,64.937z"/>
	<path fill="#27AAE1" stroke="#F1F2F2" stroke-width="2" stroke-miterlimit="10" d="M401.279,62.446l-5.05,5.327l-2.422,13.975
		h-9.927l8.717-50.364h9.927l-3.735,21.411l4.013-5.327l11.622-16.084h12.694L408.89,53.972l9.201,27.776h-11.312L401.279,62.446z"
		/>
	<path fill="#27AAE1" stroke="#F1F2F2" stroke-width="2" stroke-miterlimit="10" d="M451.297,59.955h-15.358l-2.317,13.353h18.194
		l-1.487,8.44h-28.087l8.717-50.364h28.053l-1.487,8.475h-18.091l-2.075,11.899h15.393L451.297,59.955z"/>
	<path fill="#27AAE1" stroke="#F1F2F2" stroke-width="2" stroke-miterlimit="10" d="M474.507,63.346h-5.05l-3.183,18.402h-9.928
		l8.717-50.364l15.22,0.034c4.497,0.139,7.944,1.522,10.343,4.151s3.412,6.215,3.044,10.758c-0.577,6.896-3.713,11.691-9.408,14.39
		l5.05,20.478v0.554h-10.654L474.507,63.346z M470.909,54.871l5.224,0.069c2.397-0.046,4.289-0.997,5.673-2.854
		c1.384-1.856,2.063-4.318,2.04-7.385c-0.092-3.021-1.418-4.623-3.978-4.808l-6.33-0.034L470.909,54.871z"/>
</g>
<g>
	<path fill="#D1D3D4" d="M92.375,90.125c0,0-1.674,31.667-2.587,36.084c0,0-32.413-19.459-34.288-21.584l1.25-4.25
		c0,0,10.25,7.5,21-15.875L92.375,90.125z"/>
	<path fill="#E6E7E8" d="M89.875,126.406l-0.151-0.091c-1.324-0.795-32.451-19.493-34.317-21.608l-0.045-0.051l0.019-0.066l1.3-4.42
		l0.144,0.104c0.015,0.012,1.567,1.123,4.042,1.123c4.095,0,10.329-2.941,16.771-16.949l0.049-0.105l14.819,5.699L92.5,90.132
		c-0.017,0.316-1.685,31.727-2.589,36.103L89.875,126.406z M55.64,104.592c2.189,2.24,31.657,19.974,34.059,21.418
		c0.884-4.819,2.447-33.943,2.546-35.801l-14.431-5.551c-6.48,14.037-12.791,16.988-16.949,16.988c-2.149,0-3.595-0.791-4.044-1.073
		L55.64,104.592z"/>
</g>
<g>
	<path fill="#D1D3D4" d="M50.167,101L51,98c0,0-10.167-5-18.667-34.334L21,78.334C21,78.334,41.167,95.834,50.167,101z"/>
	<path fill="#E6E7E8" d="M50.244,101.188l-0.139-0.08c-8.908-5.113-28.985-22.505-29.187-22.681l-0.089-0.077l0.072-0.094
		l11.484-14.861l0.068,0.236c8.388,28.944,18.5,34.206,18.602,34.256l0.093,0.046L50.244,101.188z M21.171,78.316
		c1.465,1.266,20.271,17.473,28.918,22.494l0.764-2.749c-1.036-0.597-10.593-6.747-18.571-34.124L21.171,78.316z"/>
</g>
<g>
	<path fill="#8DC63F" d="M31,59.666c0,0-0.833-2.5-3.167-3.666L19.5,75.5L31,59.666z"/>
	<path fill="#E6E7E8" d="M18.949,76.472l8.822-20.643l0.119,0.059c2.353,1.176,3.195,3.635,3.229,3.739l0.02,0.061L18.949,76.472z
		 M27.896,56.173l-7.844,18.355L30.86,59.646C30.719,59.272,29.872,57.223,27.896,56.173z"/>
</g>
<g>
	<path fill="#8DC63F" d="M24.833,54.667c0,0-5.417-3.333-18.25-3.833c0,0,0.5,13.5,10.417,23.167L24.833,54.667z"/>
	<path fill="#E6E7E8" d="M17.046,74.219l-0.133-0.129C7.074,64.498,6.463,50.974,6.458,50.838l-0.005-0.135l0.135,0.005
		c12.719,0.496,18.256,3.818,18.311,3.852l0.09,0.055l-0.04,0.098L17.046,74.219z M6.716,50.964
		c0.089,1.429,1.123,13.82,10.238,22.816l7.723-19.059C23.916,54.296,18.385,51.439,6.716,50.964z"/>
</g>
<g>
	<path fill="#D1D3D4" d="M55,31l15.375,12.688c0,0,5.813-6.813,20.438-4.563c0,0-1.5-19.375-20.813-29.938L55,31z"/>
	<path fill="#E6E7E8" d="M70.39,43.862L54.832,31.023l0.065-0.094L69.961,9.023l0.099,0.054
		c10.006,5.473,15.15,13.347,17.702,18.988c2.766,6.114,3.171,11.001,3.175,11.05l0.012,0.157l-0.156-0.024
		c-1.959-0.301-3.869-0.454-5.677-0.454c-10.272,0-14.604,4.924-14.646,4.974L70.39,43.862z M55.168,30.977l15.195,12.54
		c0.651-0.682,5.135-4.972,14.753-4.972c1.771,0,3.64,0.146,5.556,0.433c-0.093-0.881-0.668-5.355-3.142-10.818
		c-2.529-5.585-7.614-13.373-17.491-18.808L55.168,30.977z"/>
</g>
<g>
	<path fill="#27AAE1" d="M6.182,46.73c0,0,23.805,0.21,27.974,10.832c4.719,12.022,12.867,41.012,26.125,40.125
		c6.324-0.423,12.01-12.446,14.5-22.875c1.696-7.102,1.47-15.099,3-19c5-12.75,14.625-3.625,14.625-3.625l-0.938-9.125
		c0,0-19.438-2.965-19.438,7.625c0,8.375-1.938,39-12.438,37.875c-17.478-1.873-17.625-35.188-22.813-39.625
		C25.948,39.671,7.113,38.182,7.113,38.182L6.182,46.73z"/>
	<path fill="#E6E7E8" d="M59.69,97.832c-0.001,0-0.002,0-0.002,0C48.587,97.83,41.196,77.315,36.306,63.741
		c-0.815-2.261-1.584-4.396-2.266-6.133C29.949,47.185,6.418,46.857,6.181,46.855l-0.138-0.001l0.959-8.807l0.121,0.01
		c0.189,0.015,19,1.599,29.739,10.785c1.733,1.483,2.871,5.964,4.311,11.637c2.861,11.272,6.78,26.71,18.434,27.958
		c0.183,0.021,0.366,0.03,0.545,0.03c9.595-0.001,11.754-27.979,11.754-37.78c0-6.721,7.53-8.132,13.847-8.132
		c3.184,0,5.709,0.379,5.734,0.383l0.095,0.015l0.01,0.096l0.972,9.46l-0.245-0.232c-0.033-0.031-3.344-3.128-7.014-3.128
		c-3.17,0-5.663,2.257-7.409,6.708c-0.788,2.01-1.104,5.091-1.47,8.66c-0.332,3.235-0.708,6.902-1.525,10.324
		c-2.57,10.764-8.24,22.545-14.613,22.971C60.088,97.826,59.889,97.832,59.69,97.832z M6.321,46.608
		c1.961,0.042,23.965,0.753,27.951,10.909c0.683,1.74,1.453,3.877,2.268,6.14c4.867,13.509,12.222,33.924,23.147,33.926
		c0.001,0,0.001,0,0.002,0c0.194,0,0.387-0.006,0.583-0.02c5.969-0.398,11.756-11.762,14.387-22.779
		c0.813-3.405,1.188-7.063,1.52-10.291c0.368-3.586,0.685-6.684,1.486-8.725c1.787-4.557,4.357-6.867,7.641-6.867
		c3.19,0,6.102,2.265,6.943,2.982l-0.895-8.709c-0.488-0.068-2.785-0.367-5.601-0.367c-6.203,0-13.597,1.367-13.597,7.882
		c0,9.865-2.206,38.029-12.004,38.03c-0.188,0-0.38-0.011-0.572-0.03C47.754,87.42,43.81,71.885,40.931,60.541
		c-1.373-5.408-2.558-10.078-4.23-11.508C26.472,40.283,8.857,38.468,7.224,38.317L6.321,46.608z"/>
</g>
<g>
	<polygon fill="#FFFFFF" points="29.749,43.104 26.458,51.703 29.243,52.37 32.424,43.839 	"/>
	<path fill="#FFFFFF" d="M29.322,52.518l-3.032-0.727l3.383-8.837l2.916,0.801L29.322,52.518z M26.625,51.614l2.54,0.608
		l3.094-8.299l-2.434-0.669L26.625,51.614z"/>
</g>
<g>
	<polygon fill="#FFFFFF" points="38.395,51.603 32.659,58.805 35.112,60.283 40.723,53.112 	"/>
	<path fill="#FFFFFF" d="M35.143,60.447l-2.67-1.609l5.896-7.402l2.538,1.645l-0.084,0.108L35.143,60.447z M32.845,58.771
		l2.237,1.348l5.458-6.977l-2.118-1.373L32.845,58.771z"/>
</g>
<g>
	<path fill="#8DC63F" d="M7.997,35.169c0,0,15.364,2.28,22.128,6.394l6.396-18.54l-14.15-9.873
		C22.371,13.149,11.888,20.816,7.997,35.169z"/>
	<path fill="#E6E7E8" d="M30.192,41.75l-0.132-0.081c-6.666-4.053-21.928-6.354-22.082-6.377l-0.139-0.021l0.037-0.136
		c3.858-14.23,14.315-22.011,14.421-22.088l0.072-0.053l0.073,0.051l14.227,9.927l-0.031,0.089L30.192,41.75z M8.154,35.066
		c1.546,0.241,15.476,2.487,21.903,6.31l6.314-18.305l-13.998-9.767C21.45,14.011,11.849,21.624,8.154,35.066z"/>
</g>
<g>
	<path fill="#8DC63F" d="M43.25,50.75c0,0,3.5,22.938,10,30.313s9.125,5.875,13.125-5.875S68.5,47.375,68.5,47.375l-15.625-12.5
		L43.25,50.75z"/>
	<path fill="#E6E7E8" d="M59.563,85.689L59.563,85.689c-1.662,0-3.637-1.401-6.407-4.545c-6.45-7.317-9.995-30.146-10.03-30.375
		l-0.007-0.045l0.023-0.039l9.699-15.997l0.111,0.089L68.618,47.31l0.006,0.051c0.019,0.161,1.833,16.226-2.131,27.867
		C63.897,82.854,62.019,85.689,59.563,85.689z M43.38,50.776c0.18,1.144,3.698,23.095,9.963,30.205
		c2.718,3.084,4.636,4.459,6.219,4.459c2.295,0,4.172-2.885,6.694-10.292c3.834-11.263,2.235-26.7,2.125-27.707L52.908,35.062
		L43.38,50.776z"/>
</g>
<g>
	<path fill="#BCBEC0" d="M33.5,42.563c0,0,5.625,3.375,7,5.563l10.063-15.563l-11-7.75L33.5,42.563z"/>
	<path fill="#E6E7E8" d="M40.499,48.357l-0.104-0.166c-1.343-2.137-6.902-5.488-6.958-5.521l-0.086-0.052l6.149-18.003l11.235,7.915
		L40.499,48.357z M33.651,42.508c0.723,0.439,5.407,3.331,6.848,5.389l9.894-15.301l-10.765-7.585L33.651,42.508z"/>
</g>
<g>
	<path fill="#BCBEC0" d="M25.313,11.063l11.813,8.875l5.75-15.813C42.875,4.125,33.458,4.896,25.313,11.063z"/>
	<path fill="#E6E7E8" d="M37.185,20.139l-12.08-9.076l0.132-0.1C33.318,4.845,42.771,4.008,42.865,4l0.194-0.016L37.185,20.139z
		 M25.521,11.063l11.545,8.674L42.689,4.27C41.306,4.423,32.869,5.562,25.521,11.063z"/>
</g>
<g>
	<path fill="#D1D3D4" d="M40.75,21.25l11.333,7.917L66.469,7.344c0,0-9.781-4.469-20-3.5L40.75,21.25z"/>
	<path fill="#E6E7E8" d="M52.117,29.342l-0.105-0.073l-11.41-7.97l0.029-0.088l5.744-17.484l0.082-0.008
		c0.966-0.091,1.972-0.138,2.988-0.138c8.984,0,16.996,3.612,17.075,3.649l0.133,0.061l-0.08,0.122L52.117,29.342z M40.898,21.201
		l11.152,7.79L66.283,7.398c-1.082-0.469-8.544-3.567-16.838-3.567c-0.98,0-1.95,0.044-2.883,0.129L40.898,21.201z"/>
</g>
<g>
	<path fill="#FFFFFF" d="M68.189,21.245c0,0-1.299,0.445-2.047-0.145l-2.403-1.845c0,0-0.59-0.549,0.192-1.751l-2.921,4.466
		c0,0,0.794-0.639,1.23-0.308l2.994,2.324c0,0,0.632,0.27,0.428,1.493c-0.206,1.222,0,0,0,0S66.236,22.897,68.189,21.245"/>
</g>
<g>
	<path fill="#FFFFFF" d="M66.548,31c0,0,0.631,0.694,0.253,1.673l-2.905,4.261c0,0-0.252,0.789-2.146-0.189l4.578,3.725
		c0,0-0.474-0.852,0.063-1.736l2.652-4.198c0,0,0.252-0.631,1.452-0.221c1.2,0.411,0,0,0,0"/>
</g>
<g>
	<path fill="#FFFFFF" d="M79.442,23.176c0,0,0.743,0.966,1.6,0.851l3.707-1.345c0,0,1.354,1.929,1.671,2.697l-4.795,1.519
		c0,0-0.956,0.05-1.269,1.19c-0.313,1.14,0,0,0,0S80.909,26.378,79.442,23.176"/>
</g>
<g>
	<ellipse fill="#FFFFFF" cx="73.024" cy="26.979" rx="7.464" ry="7.793"/>
</g>
<g>
	<ellipse fill="#8DC63F" cx="86.375" cy="57.563" rx="4.25" ry="4.438"/>
	<path fill="#E6E7E8" d="M86.375,62.125c-2.413,0-4.375-2.047-4.375-4.563S83.962,53,86.375,53s4.375,2.047,4.375,4.563
		S88.788,62.125,86.375,62.125z M86.375,53.25c-2.274,0-4.125,1.935-4.125,4.313s1.851,4.313,4.125,4.313S90.5,59.94,90.5,57.563
		S88.649,53.25,86.375,53.25z"/>
</g>
<g>
	<ellipse fill="#8DC63F" cx="73.024" cy="27.062" rx="4.25" ry="4.438"/>
	<path fill="#E6E7E8" d="M73.024,31.624c-2.413,0-4.375-2.047-4.375-4.563s1.962-4.563,4.375-4.563s4.375,2.047,4.375,4.563
		S75.437,31.624,73.024,31.624z M73.024,22.749c-2.274,0-4.125,1.935-4.125,4.313s1.851,4.313,4.125,4.313s4.125-1.935,4.125-4.313
		S75.299,22.749,73.024,22.749z"/>
</g>
<g>
</g>
<g>
</g>
<g>
	<path fill="#BCBEC0" d="M81.551,63.192c0,0,4.699,4.017,9.248-0.435c0,0,1.588,0.781,2.096,1.902l-0.277,21.503L78.17,81.59
		C78.17,81.59,80.276,78.701,81.551,63.192z"/>
	<path fill="#E6E7E8" d="M92.74,86.333l-14.772-4.677l0.101-0.14c0.021-0.029,2.104-3.087,3.357-18.335l0.02-0.242l0.186,0.158
		c0.019,0.016,1.943,1.633,4.463,1.633c1.665,0,3.217-0.693,4.616-2.063l0.063-0.062l0.08,0.039
		c0.066,0.032,1.635,0.814,2.154,1.964l0.012,0.025l0,0.027L92.74,86.333z M78.361,81.52l14.133,4.474l0.275-21.306
		c-0.431-0.918-1.631-1.607-1.948-1.777c-1.43,1.373-3.02,2.07-4.726,2.07c-2.183,0-3.888-1.131-4.439-1.545
		C80.526,76.991,78.781,80.783,78.361,81.52z"/>
</g>
<g>
	<path fill="#1C75BC" d="M18.567,75.879l-0.927-0.376l9.53-23.483l0.475,0.216c0.195,0.089,4.506,2.103,6.188,6.868l19.13-28.033
		l10.213,8.713c0.82-1.236,3.136-4.707,5.508-8.102l0.246-0.353l0.386,0.191c0.037,0.018,3.703,1.803,6.337,0.341
		c1.557-0.865,2.484-2.716,2.755-5.504l0.03-0.315l6.976-2.513l0.339,0.94l-6.383,2.3c-0.347,2.963-1.434,4.97-3.235,5.968
		c-2.57,1.424-5.759,0.321-6.868-0.144c-2.845,4.085-5.541,8.17-5.568,8.212l-0.312,0.472l-10.226-8.725l-19.72,28.898l-0.27-1.081
		c-1.023-4.09-4.267-6.286-5.479-6.979L18.567,75.879z"/>
</g>
<g>
	<circle fill="#1C75BC" cx="17.594" cy="76.469" r="1.094"/>
</g>
<g>
	<circle fill="#1C75BC" cx="27.219" cy="52.781" r="1.094"/>
</g>
<g>
	<circle fill="#1C75BC" cx="33.531" cy="60.25" r="1.094"/>
</g>
<g>
	<circle fill="#1C75BC" cx="40.469" cy="50.594" r="1.094"/>
</g>
<g>
	<circle fill="#1C75BC" cx="52.75" cy="31.75" r="1.094"/>
</g>
<g>
	<circle fill="#1C75BC" cx="63.281" cy="40.531" r="1.094"/>
</g>
<g>
	<circle fill="#1C75BC" cx="69.094" cy="31.969" r="1.094"/>
</g>
<g>
	<circle fill="#1C75BC" cx="78.906" cy="26.406" r="1.094"/>
</g>
</svg>
